<mxfile host="app.diagrams.net" agent="Mozilla/5.0 (Macintosh; Intel Mac OS X 10_15_7) AppleWebKit/605.1.15 (KHTML, like Gecko) Version/17.3.1 Safari/605.1.15" version="24.7.17">
  <diagram name="Page-1" id="OYWHkDGCAQ5F40QlbdUd">
    <mxGraphModel dx="954" dy="546" grid="1" gridSize="10" guides="1" tooltips="1" connect="1" arrows="1" fold="1" page="1" pageScale="1" pageWidth="850" pageHeight="1100" math="0" shadow="0">
      <root>
        <mxCell id="0" />
        <mxCell id="1" parent="0" />
        <mxCell id="aftAqk0ffRPA3UxNjnsj-5" style="edgeStyle=orthogonalEdgeStyle;rounded=0;orthogonalLoop=1;jettySize=auto;html=1;exitX=0.5;exitY=0;exitDx=0;exitDy=0;entryX=0.5;entryY=0;entryDx=0;entryDy=0;startArrow=none;startFill=0;endArrow=none;endFill=0;" parent="1" source="aftAqk0ffRPA3UxNjnsj-1" target="aftAqk0ffRPA3UxNjnsj-4" edge="1">
          <mxGeometry relative="1" as="geometry">
            <Array as="points">
              <mxPoint x="80" y="120" />
              <mxPoint x="160" y="120" />
            </Array>
          </mxGeometry>
        </mxCell>
        <mxCell id="aftAqk0ffRPA3UxNjnsj-1" value="&lt;u&gt;ApptID&lt;/u&gt;" style="rounded=0;whiteSpace=wrap;html=1;" parent="1" vertex="1">
          <mxGeometry x="40" y="170" width="80" height="50" as="geometry" />
        </mxCell>
        <mxCell id="aftAqk0ffRPA3UxNjnsj-2" value="&lt;b&gt;APPOINTMENT&lt;/b&gt;" style="text;html=1;align=center;verticalAlign=middle;resizable=0;points=[];autosize=1;strokeColor=none;fillColor=none;" parent="1" vertex="1">
          <mxGeometry x="20" y="90" width="110" height="30" as="geometry" />
        </mxCell>
        <mxCell id="aftAqk0ffRPA3UxNjnsj-4" value="&lt;u&gt;Treatment&lt;/u&gt;&lt;div&gt;&lt;u&gt;Code&lt;/u&gt;&lt;/div&gt;" style="rounded=0;whiteSpace=wrap;html=1;" parent="1" vertex="1">
          <mxGeometry x="120" y="170" width="80" height="50" as="geometry" />
        </mxCell>
        <mxCell id="aftAqk0ffRPA3UxNjnsj-12" style="edgeStyle=orthogonalEdgeStyle;rounded=0;orthogonalLoop=1;jettySize=auto;html=1;exitX=0.5;exitY=0;exitDx=0;exitDy=0;entryX=0.5;entryY=0;entryDx=0;entryDy=0;" parent="1" source="aftAqk0ffRPA3UxNjnsj-6" target="aftAqk0ffRPA3UxNjnsj-7" edge="1">
          <mxGeometry relative="1" as="geometry">
            <Array as="points">
              <mxPoint x="355" y="120" />
              <mxPoint x="445" y="120" />
            </Array>
          </mxGeometry>
        </mxCell>
        <mxCell id="aftAqk0ffRPA3UxNjnsj-14" style="edgeStyle=orthogonalEdgeStyle;rounded=0;orthogonalLoop=1;jettySize=auto;html=1;exitX=0.5;exitY=0;exitDx=0;exitDy=0;entryX=0.5;entryY=0;entryDx=0;entryDy=0;" parent="1" source="aftAqk0ffRPA3UxNjnsj-6" target="aftAqk0ffRPA3UxNjnsj-8" edge="1">
          <mxGeometry relative="1" as="geometry">
            <Array as="points">
              <mxPoint x="355" y="120" />
              <mxPoint x="535" y="120" />
            </Array>
          </mxGeometry>
        </mxCell>
        <mxCell id="aftAqk0ffRPA3UxNjnsj-15" style="edgeStyle=orthogonalEdgeStyle;rounded=0;orthogonalLoop=1;jettySize=auto;html=1;exitX=0.5;exitY=0;exitDx=0;exitDy=0;entryX=0.5;entryY=0;entryDx=0;entryDy=0;" parent="1" source="aftAqk0ffRPA3UxNjnsj-6" target="aftAqk0ffRPA3UxNjnsj-9" edge="1">
          <mxGeometry relative="1" as="geometry">
            <Array as="points">
              <mxPoint x="355" y="120" />
              <mxPoint x="625" y="120" />
            </Array>
          </mxGeometry>
        </mxCell>
        <mxCell id="aftAqk0ffRPA3UxNjnsj-16" style="edgeStyle=orthogonalEdgeStyle;rounded=0;orthogonalLoop=1;jettySize=auto;html=1;exitX=0.5;exitY=0;exitDx=0;exitDy=0;entryX=0.5;entryY=0;entryDx=0;entryDy=0;" parent="1" source="aftAqk0ffRPA3UxNjnsj-6" target="aftAqk0ffRPA3UxNjnsj-10" edge="1">
          <mxGeometry relative="1" as="geometry">
            <Array as="points">
              <mxPoint x="355" y="120" />
              <mxPoint x="715" y="120" />
            </Array>
          </mxGeometry>
        </mxCell>
        <mxCell id="aftAqk0ffRPA3UxNjnsj-17" style="edgeStyle=orthogonalEdgeStyle;rounded=0;orthogonalLoop=1;jettySize=auto;html=1;exitX=0.5;exitY=0;exitDx=0;exitDy=0;entryX=0.5;entryY=0;entryDx=0;entryDy=0;" parent="1" source="aftAqk0ffRPA3UxNjnsj-6" target="aftAqk0ffRPA3UxNjnsj-11" edge="1">
          <mxGeometry relative="1" as="geometry">
            <Array as="points">
              <mxPoint x="355" y="120" />
              <mxPoint x="805" y="120" />
            </Array>
          </mxGeometry>
        </mxCell>
        <mxCell id="aftAqk0ffRPA3UxNjnsj-6" value="&lt;u&gt;Treament&lt;/u&gt;&lt;div&gt;&lt;u&gt;Code&lt;/u&gt;&lt;/div&gt;" style="rounded=0;whiteSpace=wrap;html=1;" parent="1" vertex="1">
          <mxGeometry x="310" y="160" width="90" height="60" as="geometry" />
        </mxCell>
        <mxCell id="aftAqk0ffRPA3UxNjnsj-7" value="Treatment&lt;div&gt;Desc&lt;/div&gt;" style="rounded=0;whiteSpace=wrap;html=1;" parent="1" vertex="1">
          <mxGeometry x="400" y="160" width="90" height="60" as="geometry" />
        </mxCell>
        <mxCell id="aftAqk0ffRPA3UxNjnsj-8" value="Treatment&lt;div&gt;Rate&lt;/div&gt;" style="rounded=0;whiteSpace=wrap;html=1;" parent="1" vertex="1">
          <mxGeometry x="490" y="160" width="90" height="60" as="geometry" />
        </mxCell>
        <mxCell id="aftAqk0ffRPA3UxNjnsj-18" style="edgeStyle=orthogonalEdgeStyle;rounded=0;orthogonalLoop=1;jettySize=auto;html=1;exitX=0.5;exitY=1;exitDx=0;exitDy=0;entryX=0.5;entryY=1;entryDx=0;entryDy=0;fillColor=#fff2cc;strokeColor=#d6b656;" parent="1" source="aftAqk0ffRPA3UxNjnsj-9" target="aftAqk0ffRPA3UxNjnsj-11" edge="1">
          <mxGeometry relative="1" as="geometry">
            <Array as="points">
              <mxPoint x="625" y="250" />
              <mxPoint x="805" y="250" />
            </Array>
          </mxGeometry>
        </mxCell>
        <mxCell id="aftAqk0ffRPA3UxNjnsj-20" style="edgeStyle=orthogonalEdgeStyle;rounded=0;orthogonalLoop=1;jettySize=auto;html=1;exitX=0.5;exitY=1;exitDx=0;exitDy=0;entryX=0.5;entryY=1;entryDx=0;entryDy=0;fillColor=#fff2cc;strokeColor=#d6b656;" parent="1" source="aftAqk0ffRPA3UxNjnsj-9" target="aftAqk0ffRPA3UxNjnsj-10" edge="1">
          <mxGeometry relative="1" as="geometry">
            <Array as="points">
              <mxPoint x="625" y="250" />
              <mxPoint x="715" y="250" />
            </Array>
          </mxGeometry>
        </mxCell>
        <mxCell id="aftAqk0ffRPA3UxNjnsj-9" value="BlockCode" style="rounded=0;whiteSpace=wrap;html=1;" parent="1" vertex="1">
          <mxGeometry x="580" y="160" width="90" height="60" as="geometry" />
        </mxCell>
        <mxCell id="aftAqk0ffRPA3UxNjnsj-10" value="BlockDesc" style="rounded=0;whiteSpace=wrap;html=1;" parent="1" vertex="1">
          <mxGeometry x="670" y="160" width="90" height="60" as="geometry" />
        </mxCell>
        <mxCell id="aftAqk0ffRPA3UxNjnsj-11" value="Block&lt;div&gt;Min&lt;/div&gt;" style="rounded=0;whiteSpace=wrap;html=1;" parent="1" vertex="1">
          <mxGeometry x="760" y="160" width="90" height="60" as="geometry" />
        </mxCell>
        <mxCell id="aftAqk0ffRPA3UxNjnsj-19" value="&lt;font color=&quot;#999900&quot;&gt;TD&lt;/font&gt;" style="text;html=1;align=center;verticalAlign=middle;resizable=0;points=[];autosize=1;strokeColor=none;fillColor=none;" parent="1" vertex="1">
          <mxGeometry x="780" y="248" width="40" height="30" as="geometry" />
        </mxCell>
        <mxCell id="aftAqk0ffRPA3UxNjnsj-21" value="&lt;b&gt;TREATMENT&lt;/b&gt;" style="text;html=1;align=center;verticalAlign=middle;resizable=0;points=[];autosize=1;strokeColor=none;fillColor=none;" parent="1" vertex="1">
          <mxGeometry x="280" y="90" width="100" height="30" as="geometry" />
        </mxCell>
        <mxCell id="aftAqk0ffRPA3UxNjnsj-22" value="&lt;b&gt;APPT_DETAIL&lt;/b&gt;" style="text;html=1;align=center;verticalAlign=middle;resizable=0;points=[];autosize=1;strokeColor=none;fillColor=none;" parent="1" vertex="1">
          <mxGeometry x="10" y="328" width="100" height="30" as="geometry" />
        </mxCell>
        <mxCell id="aftAqk0ffRPA3UxNjnsj-46" style="edgeStyle=orthogonalEdgeStyle;rounded=0;orthogonalLoop=1;jettySize=auto;html=1;exitX=0.5;exitY=0;exitDx=0;exitDy=0;entryX=0.5;entryY=0;entryDx=0;entryDy=0;" parent="1" source="aftAqk0ffRPA3UxNjnsj-23" target="aftAqk0ffRPA3UxNjnsj-24" edge="1">
          <mxGeometry relative="1" as="geometry" />
        </mxCell>
        <mxCell id="aftAqk0ffRPA3UxNjnsj-47" style="edgeStyle=orthogonalEdgeStyle;rounded=0;orthogonalLoop=1;jettySize=auto;html=1;exitX=0.5;exitY=0;exitDx=0;exitDy=0;entryX=0.5;entryY=0;entryDx=0;entryDy=0;" parent="1" source="aftAqk0ffRPA3UxNjnsj-23" target="aftAqk0ffRPA3UxNjnsj-25" edge="1">
          <mxGeometry relative="1" as="geometry" />
        </mxCell>
        <mxCell id="aftAqk0ffRPA3UxNjnsj-48" style="edgeStyle=orthogonalEdgeStyle;rounded=0;orthogonalLoop=1;jettySize=auto;html=1;exitX=0.5;exitY=0;exitDx=0;exitDy=0;entryX=0.5;entryY=0;entryDx=0;entryDy=0;" parent="1" source="aftAqk0ffRPA3UxNjnsj-23" target="aftAqk0ffRPA3UxNjnsj-26" edge="1">
          <mxGeometry relative="1" as="geometry" />
        </mxCell>
        <mxCell id="aftAqk0ffRPA3UxNjnsj-49" style="edgeStyle=orthogonalEdgeStyle;rounded=0;orthogonalLoop=1;jettySize=auto;html=1;exitX=0.5;exitY=0;exitDx=0;exitDy=0;entryX=0.5;entryY=0;entryDx=0;entryDy=0;" parent="1" source="aftAqk0ffRPA3UxNjnsj-23" target="aftAqk0ffRPA3UxNjnsj-41" edge="1">
          <mxGeometry relative="1" as="geometry" />
        </mxCell>
        <mxCell id="aftAqk0ffRPA3UxNjnsj-50" style="edgeStyle=orthogonalEdgeStyle;rounded=0;orthogonalLoop=1;jettySize=auto;html=1;exitX=0.5;exitY=0;exitDx=0;exitDy=0;entryX=0.5;entryY=0;entryDx=0;entryDy=0;" parent="1" source="aftAqk0ffRPA3UxNjnsj-23" target="aftAqk0ffRPA3UxNjnsj-42" edge="1">
          <mxGeometry relative="1" as="geometry" />
        </mxCell>
        <mxCell id="aftAqk0ffRPA3UxNjnsj-51" style="edgeStyle=orthogonalEdgeStyle;rounded=0;orthogonalLoop=1;jettySize=auto;html=1;exitX=0.5;exitY=0;exitDx=0;exitDy=0;entryX=0.5;entryY=0;entryDx=0;entryDy=0;" parent="1" source="aftAqk0ffRPA3UxNjnsj-23" target="aftAqk0ffRPA3UxNjnsj-27" edge="1">
          <mxGeometry relative="1" as="geometry" />
        </mxCell>
        <mxCell id="aftAqk0ffRPA3UxNjnsj-52" style="edgeStyle=orthogonalEdgeStyle;rounded=0;orthogonalLoop=1;jettySize=auto;html=1;exitX=0.5;exitY=0;exitDx=0;exitDy=0;entryX=0.5;entryY=0;entryDx=0;entryDy=0;" parent="1" source="aftAqk0ffRPA3UxNjnsj-23" target="aftAqk0ffRPA3UxNjnsj-39" edge="1">
          <mxGeometry relative="1" as="geometry" />
        </mxCell>
        <mxCell id="aftAqk0ffRPA3UxNjnsj-53" style="edgeStyle=orthogonalEdgeStyle;rounded=0;orthogonalLoop=1;jettySize=auto;html=1;exitX=0.5;exitY=0;exitDx=0;exitDy=0;entryX=0.5;entryY=0;entryDx=0;entryDy=0;" parent="1" source="aftAqk0ffRPA3UxNjnsj-23" target="aftAqk0ffRPA3UxNjnsj-40" edge="1">
          <mxGeometry relative="1" as="geometry" />
        </mxCell>
        <mxCell id="aftAqk0ffRPA3UxNjnsj-54" style="edgeStyle=orthogonalEdgeStyle;rounded=0;orthogonalLoop=1;jettySize=auto;html=1;exitX=0.5;exitY=0;exitDx=0;exitDy=0;entryX=0.5;entryY=0;entryDx=0;entryDy=0;" parent="1" source="aftAqk0ffRPA3UxNjnsj-23" target="aftAqk0ffRPA3UxNjnsj-28" edge="1">
          <mxGeometry relative="1" as="geometry" />
        </mxCell>
        <mxCell id="aftAqk0ffRPA3UxNjnsj-56" style="edgeStyle=orthogonalEdgeStyle;rounded=0;orthogonalLoop=1;jettySize=auto;html=1;exitX=0.5;exitY=0;exitDx=0;exitDy=0;entryX=0.5;entryY=0;entryDx=0;entryDy=0;" parent="1" source="aftAqk0ffRPA3UxNjnsj-23" target="aftAqk0ffRPA3UxNjnsj-44" edge="1">
          <mxGeometry relative="1" as="geometry" />
        </mxCell>
        <mxCell id="aftAqk0ffRPA3UxNjnsj-57" style="edgeStyle=orthogonalEdgeStyle;rounded=0;orthogonalLoop=1;jettySize=auto;html=1;exitX=0.5;exitY=0;exitDx=0;exitDy=0;entryX=0.5;entryY=0;entryDx=0;entryDy=0;" parent="1" source="aftAqk0ffRPA3UxNjnsj-23" target="aftAqk0ffRPA3UxNjnsj-30" edge="1">
          <mxGeometry relative="1" as="geometry" />
        </mxCell>
        <mxCell id="qtIrc1-O6CBOeOEguDtz-2" style="edgeStyle=orthogonalEdgeStyle;rounded=0;orthogonalLoop=1;jettySize=auto;html=1;exitX=0.5;exitY=0;exitDx=0;exitDy=0;entryX=0.5;entryY=0;entryDx=0;entryDy=0;" edge="1" parent="1" source="aftAqk0ffRPA3UxNjnsj-23" target="qtIrc1-O6CBOeOEguDtz-1">
          <mxGeometry relative="1" as="geometry" />
        </mxCell>
        <mxCell id="qtIrc1-O6CBOeOEguDtz-4" style="edgeStyle=orthogonalEdgeStyle;rounded=0;orthogonalLoop=1;jettySize=auto;html=1;exitX=0.5;exitY=0;exitDx=0;exitDy=0;entryX=0.5;entryY=0;entryDx=0;entryDy=0;" edge="1" parent="1" source="aftAqk0ffRPA3UxNjnsj-23" target="qtIrc1-O6CBOeOEguDtz-3">
          <mxGeometry relative="1" as="geometry" />
        </mxCell>
        <mxCell id="qtIrc1-O6CBOeOEguDtz-8" style="edgeStyle=orthogonalEdgeStyle;rounded=0;orthogonalLoop=1;jettySize=auto;html=1;exitX=0.5;exitY=0;exitDx=0;exitDy=0;entryX=0.5;entryY=0;entryDx=0;entryDy=0;" edge="1" parent="1" source="aftAqk0ffRPA3UxNjnsj-23" target="qtIrc1-O6CBOeOEguDtz-5">
          <mxGeometry relative="1" as="geometry" />
        </mxCell>
        <mxCell id="qtIrc1-O6CBOeOEguDtz-9" style="edgeStyle=orthogonalEdgeStyle;rounded=0;orthogonalLoop=1;jettySize=auto;html=1;exitX=0.5;exitY=0;exitDx=0;exitDy=0;entryX=0.5;entryY=0;entryDx=0;entryDy=0;" edge="1" parent="1" source="aftAqk0ffRPA3UxNjnsj-23" target="qtIrc1-O6CBOeOEguDtz-6">
          <mxGeometry relative="1" as="geometry" />
        </mxCell>
        <mxCell id="qtIrc1-O6CBOeOEguDtz-10" style="edgeStyle=orthogonalEdgeStyle;rounded=0;orthogonalLoop=1;jettySize=auto;html=1;exitX=0.5;exitY=0;exitDx=0;exitDy=0;entryX=0.5;entryY=0;entryDx=0;entryDy=0;" edge="1" parent="1" source="aftAqk0ffRPA3UxNjnsj-23" target="qtIrc1-O6CBOeOEguDtz-7">
          <mxGeometry relative="1" as="geometry" />
        </mxCell>
        <mxCell id="aftAqk0ffRPA3UxNjnsj-23" value="&lt;u&gt;ApptID&lt;/u&gt;" style="rounded=0;whiteSpace=wrap;html=1;" parent="1" vertex="1">
          <mxGeometry x="40" y="380" width="80" height="60" as="geometry" />
        </mxCell>
        <mxCell id="aftAqk0ffRPA3UxNjnsj-24" value="ApptDate" style="rounded=0;whiteSpace=wrap;html=1;" parent="1" vertex="1">
          <mxGeometry x="120" y="380" width="80" height="60" as="geometry" />
        </mxCell>
        <mxCell id="aftAqk0ffRPA3UxNjnsj-25" value="ApptTime" style="rounded=0;whiteSpace=wrap;html=1;" parent="1" vertex="1">
          <mxGeometry x="200" y="380" width="80" height="60" as="geometry" />
        </mxCell>
        <mxCell id="qtIrc1-O6CBOeOEguDtz-11" style="edgeStyle=orthogonalEdgeStyle;rounded=0;orthogonalLoop=1;jettySize=auto;html=1;exitX=0.5;exitY=1;exitDx=0;exitDy=0;entryX=0.5;entryY=1;entryDx=0;entryDy=0;fillColor=#ffe6cc;strokeColor=#d79b00;" edge="1" parent="1" source="aftAqk0ffRPA3UxNjnsj-26" target="aftAqk0ffRPA3UxNjnsj-41">
          <mxGeometry relative="1" as="geometry">
            <Array as="points">
              <mxPoint x="320" y="480" />
              <mxPoint x="400" y="480" />
            </Array>
          </mxGeometry>
        </mxCell>
        <mxCell id="qtIrc1-O6CBOeOEguDtz-12" style="edgeStyle=orthogonalEdgeStyle;rounded=0;orthogonalLoop=1;jettySize=auto;html=1;exitX=0.5;exitY=1;exitDx=0;exitDy=0;entryX=0.5;entryY=1;entryDx=0;entryDy=0;fillColor=#ffe6cc;strokeColor=#d79b00;" edge="1" parent="1" source="aftAqk0ffRPA3UxNjnsj-26" target="aftAqk0ffRPA3UxNjnsj-42">
          <mxGeometry relative="1" as="geometry">
            <Array as="points">
              <mxPoint x="320" y="480" />
              <mxPoint x="480" y="480" />
            </Array>
          </mxGeometry>
        </mxCell>
        <mxCell id="qtIrc1-O6CBOeOEguDtz-13" style="edgeStyle=orthogonalEdgeStyle;rounded=0;orthogonalLoop=1;jettySize=auto;html=1;exitX=0.5;exitY=1;exitDx=0;exitDy=0;entryX=0.5;entryY=1;entryDx=0;entryDy=0;fillColor=#ffe6cc;strokeColor=#d79b00;" edge="1" parent="1" source="aftAqk0ffRPA3UxNjnsj-26" target="qtIrc1-O6CBOeOEguDtz-1">
          <mxGeometry relative="1" as="geometry">
            <Array as="points">
              <mxPoint x="320" y="480" />
              <mxPoint x="560" y="480" />
            </Array>
          </mxGeometry>
        </mxCell>
        <mxCell id="aftAqk0ffRPA3UxNjnsj-26" value="PatientID" style="rounded=0;whiteSpace=wrap;html=1;" parent="1" vertex="1">
          <mxGeometry x="280" y="380" width="80" height="60" as="geometry" />
        </mxCell>
        <mxCell id="qtIrc1-O6CBOeOEguDtz-16" style="edgeStyle=orthogonalEdgeStyle;rounded=0;orthogonalLoop=1;jettySize=auto;html=1;exitX=0.5;exitY=1;exitDx=0;exitDy=0;entryX=0.5;entryY=1;entryDx=0;entryDy=0;fillColor=#e1d5e7;strokeColor=#9673a6;" edge="1" parent="1" source="aftAqk0ffRPA3UxNjnsj-27" target="aftAqk0ffRPA3UxNjnsj-39">
          <mxGeometry relative="1" as="geometry">
            <Array as="points">
              <mxPoint x="960" y="480" />
              <mxPoint x="1040" y="480" />
            </Array>
          </mxGeometry>
        </mxCell>
        <mxCell id="qtIrc1-O6CBOeOEguDtz-17" style="edgeStyle=orthogonalEdgeStyle;rounded=0;orthogonalLoop=1;jettySize=auto;html=1;exitX=0.5;exitY=1;exitDx=0;exitDy=0;entryX=0.5;entryY=1;entryDx=0;entryDy=0;fillColor=#e1d5e7;strokeColor=#9673a6;" edge="1" parent="1" source="aftAqk0ffRPA3UxNjnsj-27" target="aftAqk0ffRPA3UxNjnsj-40">
          <mxGeometry relative="1" as="geometry">
            <Array as="points">
              <mxPoint x="960" y="480" />
              <mxPoint x="1120" y="480" />
            </Array>
          </mxGeometry>
        </mxCell>
        <mxCell id="aftAqk0ffRPA3UxNjnsj-27" value="ProvID" style="rounded=0;whiteSpace=wrap;html=1;" parent="1" vertex="1">
          <mxGeometry x="920" y="380" width="80" height="60" as="geometry" />
        </mxCell>
        <mxCell id="qtIrc1-O6CBOeOEguDtz-19" style="edgeStyle=orthogonalEdgeStyle;rounded=0;orthogonalLoop=1;jettySize=auto;html=1;exitX=0.5;exitY=1;exitDx=0;exitDy=0;entryX=0.5;entryY=1;entryDx=0;entryDy=0;fillColor=#fff2cc;strokeColor=#d6b656;" edge="1" parent="1" source="aftAqk0ffRPA3UxNjnsj-28" target="aftAqk0ffRPA3UxNjnsj-44">
          <mxGeometry relative="1" as="geometry">
            <Array as="points">
              <mxPoint x="1200" y="480" />
              <mxPoint x="1280" y="480" />
            </Array>
          </mxGeometry>
        </mxCell>
        <mxCell id="aftAqk0ffRPA3UxNjnsj-28" value="ApptStatus&lt;div&gt;Code&lt;/div&gt;" style="rounded=0;whiteSpace=wrap;html=1;" parent="1" vertex="1">
          <mxGeometry x="1160" y="380" width="80" height="60" as="geometry" />
        </mxCell>
        <mxCell id="qtIrc1-O6CBOeOEguDtz-20" style="edgeStyle=orthogonalEdgeStyle;rounded=0;orthogonalLoop=1;jettySize=auto;html=1;exitX=0.5;exitY=1;exitDx=0;exitDy=0;entryX=0.5;entryY=1;entryDx=0;entryDy=0;fillColor=#f8cecc;strokeColor=#b85450;" edge="1" parent="1" source="aftAqk0ffRPA3UxNjnsj-30" target="aftAqk0ffRPA3UxNjnsj-45">
          <mxGeometry relative="1" as="geometry">
            <Array as="points">
              <mxPoint x="1360" y="480" />
              <mxPoint x="1440" y="480" />
            </Array>
          </mxGeometry>
        </mxCell>
        <mxCell id="aftAqk0ffRPA3UxNjnsj-30" value="PmtStatus" style="rounded=0;whiteSpace=wrap;html=1;" parent="1" vertex="1">
          <mxGeometry x="1320" y="380" width="80" height="60" as="geometry" />
        </mxCell>
        <mxCell id="aftAqk0ffRPA3UxNjnsj-39" value="ProvFName" style="rounded=0;whiteSpace=wrap;html=1;" parent="1" vertex="1">
          <mxGeometry x="1000" y="380" width="80" height="60" as="geometry" />
        </mxCell>
        <mxCell id="aftAqk0ffRPA3UxNjnsj-40" value="ProvLName" style="rounded=0;whiteSpace=wrap;html=1;" parent="1" vertex="1">
          <mxGeometry x="1080" y="380" width="80" height="60" as="geometry" />
        </mxCell>
        <mxCell id="aftAqk0ffRPA3UxNjnsj-41" value="PatientF&lt;div&gt;Name&lt;/div&gt;" style="rounded=0;whiteSpace=wrap;html=1;" parent="1" vertex="1">
          <mxGeometry x="360" y="380" width="80" height="60" as="geometry" />
        </mxCell>
        <mxCell id="aftAqk0ffRPA3UxNjnsj-42" value="PatientL&lt;div&gt;Name&lt;/div&gt;" style="rounded=0;whiteSpace=wrap;html=1;" parent="1" vertex="1">
          <mxGeometry x="440" y="380" width="80" height="60" as="geometry" />
        </mxCell>
        <mxCell id="aftAqk0ffRPA3UxNjnsj-44" value="ApptStatus&lt;div&gt;Desc&lt;/div&gt;" style="rounded=0;whiteSpace=wrap;html=1;" parent="1" vertex="1">
          <mxGeometry x="1240" y="380" width="80" height="60" as="geometry" />
        </mxCell>
        <mxCell id="aftAqk0ffRPA3UxNjnsj-45" value="PmtDesc" style="rounded=0;whiteSpace=wrap;html=1;" parent="1" vertex="1">
          <mxGeometry x="1400" y="380" width="80" height="60" as="geometry" />
        </mxCell>
        <mxCell id="aftAqk0ffRPA3UxNjnsj-58" style="edgeStyle=orthogonalEdgeStyle;rounded=0;orthogonalLoop=1;jettySize=auto;html=1;exitX=0.5;exitY=0;exitDx=0;exitDy=0;entryX=0.5;entryY=0;entryDx=0;entryDy=0;" parent="1" source="aftAqk0ffRPA3UxNjnsj-23" target="aftAqk0ffRPA3UxNjnsj-45" edge="1">
          <mxGeometry relative="1" as="geometry" />
        </mxCell>
        <mxCell id="aftAqk0ffRPA3UxNjnsj-65" value="&lt;font color=&quot;#ff8000&quot;&gt;TD&lt;/font&gt;" style="text;html=1;align=center;verticalAlign=middle;resizable=0;points=[];autosize=1;strokeColor=none;fillColor=none;" parent="1" vertex="1">
          <mxGeometry x="550" y="460" width="40" height="30" as="geometry" />
        </mxCell>
        <mxCell id="aftAqk0ffRPA3UxNjnsj-66" value="&lt;font color=&quot;#007fff&quot;&gt;TD&lt;/font&gt;" style="text;html=1;align=center;verticalAlign=middle;resizable=0;points=[];autosize=1;strokeColor=none;fillColor=none;" parent="1" vertex="1">
          <mxGeometry x="710" y="460" width="40" height="30" as="geometry" />
        </mxCell>
        <mxCell id="aftAqk0ffRPA3UxNjnsj-67" value="&lt;font color=&quot;#009900&quot;&gt;TD&lt;/font&gt;" style="text;html=1;align=center;verticalAlign=middle;resizable=0;points=[];autosize=1;strokeColor=none;fillColor=none;" parent="1" vertex="1">
          <mxGeometry x="870" y="460" width="40" height="30" as="geometry" />
        </mxCell>
        <mxCell id="aftAqk0ffRPA3UxNjnsj-68" value="&lt;font color=&quot;#9933ff&quot;&gt;TD&lt;/font&gt;" style="text;html=1;align=center;verticalAlign=middle;resizable=0;points=[];autosize=1;strokeColor=none;fillColor=none;" parent="1" vertex="1">
          <mxGeometry x="1110" y="460" width="40" height="30" as="geometry" />
        </mxCell>
        <mxCell id="qtIrc1-O6CBOeOEguDtz-1" value="PatientPhone" style="rounded=0;whiteSpace=wrap;html=1;" vertex="1" parent="1">
          <mxGeometry x="520" y="380" width="80" height="60" as="geometry" />
        </mxCell>
        <mxCell id="qtIrc1-O6CBOeOEguDtz-14" style="edgeStyle=orthogonalEdgeStyle;rounded=0;orthogonalLoop=1;jettySize=auto;html=1;exitX=0.5;exitY=1;exitDx=0;exitDy=0;entryX=0.5;entryY=1;entryDx=0;entryDy=0;fillColor=#dae8fc;strokeColor=#6c8ebf;" edge="1" parent="1" source="qtIrc1-O6CBOeOEguDtz-3" target="qtIrc1-O6CBOeOEguDtz-5">
          <mxGeometry relative="1" as="geometry">
            <Array as="points">
              <mxPoint x="640" y="480" />
              <mxPoint x="720" y="480" />
            </Array>
          </mxGeometry>
        </mxCell>
        <mxCell id="qtIrc1-O6CBOeOEguDtz-3" value="BillingType" style="rounded=0;whiteSpace=wrap;html=1;" vertex="1" parent="1">
          <mxGeometry x="600" y="380" width="80" height="60" as="geometry" />
        </mxCell>
        <mxCell id="qtIrc1-O6CBOeOEguDtz-5" value="BillingType&lt;div&gt;Desc&lt;/div&gt;" style="rounded=0;whiteSpace=wrap;html=1;" vertex="1" parent="1">
          <mxGeometry x="680" y="380" width="80" height="60" as="geometry" />
        </mxCell>
        <mxCell id="qtIrc1-O6CBOeOEguDtz-15" style="edgeStyle=orthogonalEdgeStyle;rounded=0;orthogonalLoop=1;jettySize=auto;html=1;exitX=0.5;exitY=1;exitDx=0;exitDy=0;entryX=0.5;entryY=1;entryDx=0;entryDy=0;fillColor=#d5e8d4;strokeColor=#82b366;" edge="1" parent="1" source="qtIrc1-O6CBOeOEguDtz-6" target="qtIrc1-O6CBOeOEguDtz-7">
          <mxGeometry relative="1" as="geometry">
            <Array as="points">
              <mxPoint x="800" y="480" />
              <mxPoint x="880" y="480" />
            </Array>
          </mxGeometry>
        </mxCell>
        <mxCell id="qtIrc1-O6CBOeOEguDtz-6" value="InsCoID" style="rounded=0;whiteSpace=wrap;html=1;" vertex="1" parent="1">
          <mxGeometry x="760" y="380" width="80" height="60" as="geometry" />
        </mxCell>
        <mxCell id="qtIrc1-O6CBOeOEguDtz-7" value="InsCo&lt;div&gt;Name&lt;/div&gt;" style="rounded=0;whiteSpace=wrap;html=1;" vertex="1" parent="1">
          <mxGeometry x="840" y="380" width="80" height="60" as="geometry" />
        </mxCell>
        <mxCell id="qtIrc1-O6CBOeOEguDtz-21" value="&lt;font color=&quot;#cccc00&quot;&gt;TD&lt;/font&gt;" style="text;html=1;align=center;verticalAlign=middle;resizable=0;points=[];autosize=1;strokeColor=none;fillColor=none;" vertex="1" parent="1">
          <mxGeometry x="1270" y="458" width="40" height="30" as="geometry" />
        </mxCell>
        <mxCell id="qtIrc1-O6CBOeOEguDtz-22" value="&lt;font color=&quot;#ff0000&quot;&gt;TD&lt;/font&gt;" style="text;html=1;align=center;verticalAlign=middle;resizable=0;points=[];autosize=1;strokeColor=none;fillColor=none;" vertex="1" parent="1">
          <mxGeometry x="1440" y="458" width="40" height="30" as="geometry" />
        </mxCell>
      </root>
    </mxGraphModel>
  </diagram>
</mxfile>
